<?xml version="1.0" encoding="utf-8"?> <!-- Generator: Adobe Illustrator 22.1.0, SVG Export Plug-In . SVG Version: 6.00 Build 0)  --> <svg version="1.1" id="Layer_1" xmlns="http://www.w3.org/2000/svg" xmlns:xlink="http://www.w3.org/1999/xlink" x="0px" y="0px" 	 viewBox="0 0 501 148" style="enable-background:new 0 0 501 148;" xml:space="preserve"> <style type="text/css"> 	.st0{fill-rule:evenodd;clip-rule:evenodd;fill:#fff;} 	.st1{fill-rule:evenodd;clip-rule:evenodd;fill:#fff;} 	.st2{fill:url(#SVGID_1_);} 	.st3{fill:url(#SVGID_2_);} 	.st4{fill:url(#SVGID_3_);} 	.st5{fill:url(#SVGID_4_);} 	.st6{fill:url(#SVGID_5_);} 	.st7{fill:url(#SVGID_6_);} 	.st8{fill:url(#SVGID_7_);} 	.st9{fill:url(#SVGID_8_);} 	.st10{fill:url(#SVGID_9_);} 	.st11{fill:url(#SVGID_10_);} </style> <path class="st0" d="M392.8,120.4V74.9l36,45.5h2.8V69.2h-3.7v44.5l-35.3-44.5h-3.6v51.2H392.8z M352.2,117.8 c-12.6,0-21.8-10.4-21.8-23v-0.1c0-12.7,9.1-22.9,21.7-22.9c12.6,0,21.8,10.4,21.8,23v0.1C373.9,107.6,364.9,117.8,352.2,117.8 	 M352.1,121.2c15.5,0,25.8-12.5,25.8-26.5v-0.1c0-14-10.1-26.3-25.6-26.3c-15.5,0-25.8,12.5-25.8,26.5v0.1 	C326.5,108.9,336.6,121.2,352.1,121.2 M310.9,120.4h3.8V69.2h-3.8V120.4 M278.9,120.4h3.8V72.7h17.8v-3.5h-39.4v3.5h17.8V120.4 	 M227.6,102.6L241.1,73l13.4,29.6H227.6 M215.5,120.4h3.9L226,106h30.2l6.5,14.3h4.2L243,68.8h-3.7L215.5,120.4 M198.8,120.7h3.4 	l22.5-51.6h-4l-20.1,47.1l-20-47.1h-4.2L198.8,120.7 M147.4,117.8c-12.6,0-21.8-10.4-21.8-23v-0.1c0-12.7,9.1-22.9,21.7-22.9 	c12.6,0,21.8,10.4,21.8,23v0.1C169.1,107.6,160.1,117.8,147.4,117.8 M147.3,121.2c15.5,0,25.8-12.5,25.8-26.5v-0.1 	c0-14-10.1-26.3-25.6-26.3s-25.8,12.5-25.8,26.5v0.1C121.7,108.9,131.8,121.2,147.3,121.2 M69.3,120.4h3.7V74.9l36,45.5h2.8V69.2 	h-3.7v44.5L72.9,69.2h-3.6V120.4 M16.1,120.4h3.7V74.9l36,45.5h2.8V69.2h-3.7v44.5L19.6,69.2h-3.6V120.4 M1.7,120.4h3.8V69.2H1.7 	V120.4"/> <path class="st0" d="M325.4,147.5c2.6,0,4.2-1,5.6-2.5l-1.6-1.6c-1.2,1.1-2.3,1.8-4,1.8c-2.6,0-4.6-2.2-4.6-4.9v0 c0-2.7,1.9-4.9,4.6-4.9c1.6,0,2.8,0.7,3.9,1.7l1.6-1.8c-1.3-1.3-2.9-2.2-5.4-2.2c-4.2,0-7.1,3.2-7.1,7.2v0 	C318.3,144.3,321.3,147.5,325.4,147.5z M305.7,147.2h9.7V145h-7.3v-11.6h-2.4V147.2z M291.6,147.2h9.7V145H294v-11.6h-2.4V147.2z 	 M271.9,147.2h2.5v-5.5l5.5-8.3h-2.8l-3.9,6.1l-3.9-6.1h-2.9l5.5,8.4V147.2z M257.7,147.5c2.5,0,4.4-1,5.8-2.2v-5.8h-5.9v2.1h3.5 	v2.6c-0.9,0.6-2,1-3.3,1c-2.8,0-4.7-2.1-4.7-5v0c0-2.7,1.9-4.9,4.5-4.9c1.8,0,2.8,0.6,3.9,1.5l1.5-1.8c-1.4-1.2-2.9-1.9-5.3-1.9 	c-4.2,0-7.1,3.3-7.1,7.2v0C250.5,144.4,253.4,147.5,257.7,147.5z M239.1,145.2c-2.7,0-4.7-2.2-4.7-4.9v0c0-2.7,1.9-4.9,4.7-4.9 	c2.7,0,4.7,2.2,4.7,4.9v0C243.8,143,241.9,145.2,239.1,145.2z M239.1,147.5c4.3,0,7.3-3.3,7.3-7.2v0c0-3.9-3-7.1-7.2-7.1 	c-4.3,0-7.3,3.3-7.3,7.2v0C231.9,144.2,234.8,147.5,239.1,147.5z M219.2,147.2h9.7V145h-7.3v-11.6h-2.4V147.2z M207.2,145.2 	c-2.7,0-4.7-2.2-4.7-4.9v0c0-2.7,1.9-4.9,4.7-4.9c2.7,0,4.7,2.2,4.7,4.9v0C211.9,143,210,145.2,207.2,145.2z M207.2,147.5 	c4.3,0,7.3-3.3,7.3-7.2v0c0-3.9-3-7.1-7.2-7.1c-4.3,0-7.3,3.3-7.3,7.2v0C200,144.2,202.9,147.5,207.2,147.5z M183.1,147.2h2.4v-9.9 	l7.6,9.9h2v-13.9h-2.4v9.6l-7.4-9.6h-2.3V147.2z M166.3,147.2h2.4v-5.8h6.6v5.8h2.4v-13.9h-2.4v5.8h-6.6v-5.8h-2.4V147.2z 	 M156.3,147.5c2.6,0,4.2-1,5.6-2.5l-1.6-1.6c-1.2,1.1-2.3,1.8-4,1.8c-2.6,0-4.6-2.2-4.6-4.9v0c0-2.7,1.9-4.9,4.6-4.9 	c1.6,0,2.8,0.7,3.9,1.7l1.6-1.8c-1.3-1.3-2.9-2.2-5.4-2.2c-4.2,0-7.1,3.2-7.1,7.2v0C149.3,144.3,152.3,147.5,156.3,147.5z 	 M134.8,147.2h10.4v-2.2h-7.9v-3.7h6.9v-2.2h-6.9v-3.6h7.8v-2.2h-10.3V147.2z M123.6,147.2h2.5v-11.6h4.4v-2.3h-11.2v2.3h4.4V147.2z 	 M100.6,145.4c-1.3,0-2.3-0.9-2.3-2v0c0-0.9,0.6-1.7,1.8-2.3l3.1,3.1C102.4,145,101.5,145.4,100.6,145.4z M100.9,138.8 	c-0.8-0.9-1-1.4-1-2.1v0c0-1,0.7-1.7,1.6-1.7c0.9,0,1.6,0.6,1.6,1.6v0C103.1,137.7,102.4,138.3,100.9,138.8z M106.4,147.5l1.8-1.3 	L106,144c0.7-1,1.3-2.1,1.9-3.2l-1.8-1c-0.5,1-0.9,1.9-1.5,2.7l-2.4-2.4c1.8-0.7,3-1.8,3-3.6v0c0-1.9-1.5-3.3-3.7-3.3 	c-2.5,0-4,1.6-4,3.5v0c0,1,0.4,1.9,1.1,2.9c-1.9,0.8-2.9,2.1-2.9,3.9v0c0,2.4,1.9,4,4.5,4c1.7,0,3.1-0.7,4.3-1.8L106.4,147.5z 	 M77.2,147.2h2.5v-5.5l5.5-8.3h-2.8l-3.9,6.1l-3.9-6.1h-2.9l5.5,8.4V147.2z M63.3,147.5c2.6,0,4.2-1,5.6-2.5l-1.6-1.6 	c-1.2,1.1-2.3,1.8-4,1.8c-2.6,0-4.6-2.2-4.6-4.9v0c0-2.7,1.9-4.9,4.6-4.9c1.6,0,2.8,0.7,3.9,1.7l1.6-1.8c-1.3-1.3-2.9-2.2-5.4-2.2 	c-4.2,0-7.1,3.2-7.1,7.2v0C56.3,144.3,59.3,147.5,63.3,147.5z M48.9,147.2h2.4v-13.9h-2.4V147.2z M34.7,147.2h9.7V145h-7.3v-11.6 	h-2.4V147.2z M22.7,145.2c-2.7,0-4.7-2.2-4.7-4.9v0c0-2.7,1.9-4.9,4.7-4.9c2.7,0,4.7,2.2,4.7,4.9v0C27.4,143,25.5,145.2,22.7,145.2z 	 M22.7,147.5c4.3,0,7.3-3.3,7.3-7.2v0c0-3.9-3-7.1-7.2-7.1s-7.3,3.3-7.3,7.2v0C15.5,144.2,18.4,147.5,22.7,147.5z M3.5,140.6v-5h2.8 	c1.8,0,3,0.9,3,2.5v0c0,1.4-1.1,2.5-3,2.5H3.5z M1,147.2h2.4v-4.5h2.7c3,0,5.5-1.6,5.5-4.7v0c0-2.8-2-4.6-5.3-4.6H1V147.2z"/> <polyline class="st1" points="0.7,55.7 37.5,55.7 37.5,52.2 4.5,52.2 4.5,31.6 33.8,31.6 33.8,28.1 4.5,28.1 4.5,8 37.1,8 37.1,4.5  0.7,4.5 0.7,55.7 "/> <polyline class="st1" points="48,55.7 51.6,55.7 51.6,10.2 87.6,55.7 90.5,55.7 90.5,4.5 86.8,4.5 86.8,49.1 51.6,4.5 48,4.5  48,55.7 "/> <polyline class="st1" points="102.6,55.7 139.3,55.7 139.3,52.2 106.4,52.2 106.4,31.6 135.7,31.6 135.7,28.1 106.4,28.1 106.4,8  139,8 139,4.5 102.6,4.5 102.6,55.7 "/> <path class="st1" d="M153.6,31.1V8h17.4c9.3,0,14.7,4.3,14.7,11.2v0.1c0,7.4-6.4,11.7-14.9,11.7H153.6z M149.8,55.7h3.8V34.5h16.7 l16.3,21.2h4.8l-16.9-21.9c8.6-1.2,15-6.1,15-14.6v-0.1c0-3.7-1.5-7.1-3.9-9.5c-3.1-3.1-8.1-5-14.4-5h-21.5V55.7z"/> <path class="st1" d="M224.4,56.6c8.3,0,15.5-3.6,20.1-7.7V29.2h-20.7v3.5h17.1v14.7c-3.7,3.1-9.8,5.9-16.3,5.9 c-13.7,0-21.9-9.9-21.9-23.1V30c0-12.4,8.7-22.9,21.1-22.9c7.7,0,12.4,2.6,16.4,6.1l2.5-2.9c-5.1-4.2-10.4-6.7-18.7-6.7 c-15.3,0-25.3,12.7-25.3,26.5v0.1C198.7,44.7,208.3,56.6,224.4,56.6"/> <polyline class="st1" points="271,55.7 274.8,55.7 274.8,35.4 296.7,4.5 292.1,4.5 272.9,32 253.8,4.5 249.1,4.5 271,35.5 271,55.7 "/> <g> 	<radialGradient id="SVGID_1_" cx="426.8506" cy="57.0314" r="61.5141" fx="430.1261" fy="64.8842" gradientTransform="matrix(1 0 0 1.0035 0 -0.1976)" gradientUnits="userSpaceOnUse"> 		<stop  offset="2.633477e-02" style="stop-color:#FDEEDC"/> 		<stop  offset="0.5282" style="stop-color:#EA8F38"/> 		<stop  offset="0.7646" style="stop-color:#DD5C10"/> 	</radialGradient> 	<path class="st2" d="M418.3,49.8c-3.8-7-7.5-13.9-11.3-20.9c-3.4-6.4-6.9-12.8-10.3-19.1c-0.1-0.2-0.3-0.3-0.7-0.8 c0.2,1.1,0.2,1.8,0.4,2.4c2.3,7.8,4.6,15.6,6.9,23.4c0.2,0.9,0.6,1.6,1.2,2.2c1.4,1.6,2.8,3.1,4.2,4.7c3.2,3.5,6.3,7.1,9.4,10.6 		c0.7,0.8,1.4,1.7,2.2,2.6c0.1,0.1,0.3,0.3,0.4,0.4c0,0,0.1,0,0.2,0c0,0,0.1-0.1,0.1-0.2c0.1-0.3-0.1-0.6-0.2-0.9 		C419.9,52.7,419.1,51.3,418.3,49.8z"/> 	 	<radialGradient id="SVGID_2_" cx="423.9158" cy="58.9879" r="61.5141" fx="427.1913" fy="66.8408" gradientTransform="matrix(0.8673 -0.4978 0.4995 0.8703 26.7877 218.6676)" gradientUnits="userSpaceOnUse"> 		<stop  offset="2.543014e-02" style="stop-color:#FDEEDC"/> 		<stop  offset="0.5488" style="stop-color:#EA8F38"/> 		<stop  offset="0.7655" style="stop-color:#DD5C10"/> 	</radialGradient> 	<path class="st3" d="M416.1,58.8c-1.3-1-2.6-2-3.8-3.1c-6.1-5-12.1-10-18.2-15c-5.5-4.6-11.1-9.2-16.6-13.8c-0.1-0.1-0.3-0.2-1-0.5 c0.6,1,0.8,1.6,1.2,2.1c5,6.3,10,12.7,15,19.1c0.5,0.7,1.2,1.2,1.9,1.6c1.9,0.9,3.8,1.8,5.6,2.7c4.2,2,8.4,4.2,12.6,6.3 c1,0.5,2,1,3,1.5c0.2,0.1,0.4,0.1,0.5,0.2c0,0,0.1-0.1,0.2-0.1c0,0,0-0.1,0-0.2C416.6,59.2,416.4,59,416.1,58.8z"/> 	 	<radialGradient id="SVGID_3_" cx="439.3725" cy="58.7923" r="61.5141" fx="442.648" fy="66.6451" gradientTransform="matrix(0.234 0.9722 -0.9756 0.2348 393.9321 -382.1883)" gradientUnits="userSpaceOnUse"> 		<stop  offset="6.645344e-02" style="stop-color:#FDEEDC"/> 		<stop  offset="0.178" style="stop-color:#F8D5B0"/> 		<stop  offset="0.3568" style="stop-color:#F0AF70"/> 		<stop  offset="0.4872" style="stop-color:#EC9847"/> 		<stop  offset="0.5546" style="stop-color:#EA8F38"/> 		<stop  offset="0.7827" style="stop-color:#DD5C10"/> 	</radialGradient> 	<path class="st4" d="M460.8,39.5c-1.4,1.6-2.8,3.2-4.1,4.8c-3.1,3.6-6.3,7.1-9.4,10.6c-0.7,0.8-1.5,1.6-2.3,2.5 c-0.1,0.1-0.2,0.3-0.3,0.5c0,0,0,0.1,0.1,0.2c0,0,0.1,0.1,0.2,0.1c0.4,0,0.6-0.2,0.9-0.3c1.3-1,2.6-1.9,4-2.9 c6.4-4.5,12.8-9.1,19.2-13.6c5.9-4.1,11.8-8.3,17.7-12.4c0.2-0.1,0.3-0.3,0.7-0.8c-1.1,0.3-1.7,0.4-2.3,0.6 c-7.4,3.1-14.8,6.3-22.2,9.4C462,38.4,461.3,38.8,460.8,39.5z"/> 	 	<radialGradient id="SVGID_4_" cx="440.1551" cy="65.2489" r="61.5141" fx="443.4306" fy="73.1017" gradientTransform="matrix(-0.1482 0.989 -0.9924 -0.1488 570.1559 -360.3369)" gradientUnits="userSpaceOnUse"> 		<stop  offset="6.394415e-02" style="stop-color:#FDEEDC"/> 		<stop  offset="0.5923" style="stop-color:#EA8F38"/> 		<stop  offset="0.8376" style="stop-color:#DD5C10"/> 	</radialGradient> 	<path class="st5" d="M469.6,52.3c-1.9,0.9-3.7,1.9-5.6,2.8c-4.2,2.2-8.4,4.2-12.6,6.3c-1,0.5-2,0.9-3,1.4c-0.2,0.1-0.3,0.2-0.5,0.3 c0,0,0,0.1,0,0.2c0,0.1,0.1,0.1,0.1,0.1c0.3,0.2,0.6,0.1,0.9,0c1.6-0.4,3.2-0.8,4.7-1.2c7.6-1.8,15.2-3.5,22.8-5.3 c7-1.6,14-3.2,20.9-4.8c0.2,0,0.3-0.2,1-0.5c-1.1-0.2-1.7-0.3-2.4-0.3c-8,0.1-16,0.2-24,0.3C471.1,51.7,470.3,51.9,469.6,52.3z"/> 	 	<radialGradient id="SVGID_5_" cx="430.1767" cy="55.8574" r="61.5141" fx="433.4522" fy="63.7103" gradientTransform="matrix(0.9725 0.2328 -0.2336 0.9759 24.872 -98.8092)" gradientUnits="userSpaceOnUse"> 		<stop  offset="1.983906e-02" style="stop-color:#FDEEDC"/> 		<stop  offset="0.2181" style="stop-color:#F5C89B"/> 		<stop  offset="0.5278" style="stop-color:#EA8F38"/> 		<stop  offset="0.7472" style="stop-color:#DD5C10"/> 	</radialGradient> 	<path class="st6" d="M426.3,46.4c-1.1-7.9-2.1-15.7-3.2-23.6c-1-7.2-1.9-14.4-2.9-21.6c0-0.2-0.1-0.4-0.4-1 c-0.3,1.1-0.4,1.7-0.5,2.4c-0.6,8.1-1.2,16.2-1.8,24.3c-0.1,0.9,0,1.7,0.4,2.5c0.8,2,1.5,3.9,2.3,5.9c1.8,4.4,3.4,8.9,5,13.3 c0.4,1.1,0.7,2.1,1.1,3.2c0.1,0.2,0.2,0.3,0.3,0.5c0,0,0.1,0,0.2,0c0.1,0,0.1-0.1,0.1-0.1c0.2-0.3,0.1-0.6,0.1-1 C426.8,49.6,426.5,48,426.3,46.4z"/> 	<radialGradient id="SVGID_6_" cx="435.9641" cy="70.0442" r="69.4243" gradientUnits="userSpaceOnUse"> 		<stop  offset="3.538497e-02" style="stop-color:#FDEEDC"/> 		<stop  offset="0.5395" style="stop-color:#EA8F38"/> 		<stop  offset="0.7853" style="stop-color:#DD5C10"/> 	</radialGradient> 	<path class="st7" d="M491.3,100.4c-6-5.4-12-10.7-18-16.1c-0.7-0.6-1.4-1-2.2-1.2c-2-0.6-4-1.1-6-1.7c-4.5-1.2-9-2.6-13.5-3.9 c-1.1-0.3-2.1-0.7-3.2-1c-0.2-0.1-0.4-0.1-0.6-0.1c0,0-0.1,0.1-0.1,0.1c0,0.1,0,0.1,0,0.2c0.1,0.3,0.4,0.5,0.7,0.7 c1.4,0.8,2.9,1.6,4.3,2.4c6.8,3.9,13.6,7.7,20.5,11.6c6.2,3.6,12.5,7.1,18.7,10.7c0.2,0.1,0.4,0.1,1,0.3 C492.1,101.3,491.8,100.8,491.3,100.4z"/> 	 	<radialGradient id="SVGID_7_" cx="439.7638" cy="66.6185" r="63.088" fx="440.4073" fy="71.731" gradientTransform="matrix(-0.1844 0.9829 -0.9863 -0.185 586.5453 -353.2818)" gradientUnits="userSpaceOnUse"> 		<stop  offset="5.011623e-02" style="stop-color:#FDEEDC"/> 		<stop  offset="0.5827" style="stop-color:#EA8F38"/> 		<stop  offset="0.8174" style="stop-color:#DD5C10"/> 	</radialGradient> 	<path class="st8" d="M498.1,76.3c-7.5-2.8-15-5.7-22.5-8.5c-0.8-0.3-1.6-0.4-2.5-0.3c-2.1,0.2-4.1,0.4-6.2,0.6 c-4.7,0.5-9.3,0.8-14,1.2c-1.1,0.1-2.2,0.1-3.3,0.2c-0.2,0-0.4,0.1-0.6,0.1c0,0-0.1,0.1-0.1,0.2c0,0.1,0,0.1,0.1,0.2 c0.2,0.3,0.6,0.3,0.9,0.4c1.6,0.2,3.2,0.4,4.8,0.6c7.7,1.1,15.5,2.2,23.2,3.4c7.1,1,14.2,2.1,21.2,3.1c0.2,0,0.4,0,1.1-0.1 C499.3,76.9,498.7,76.6,498.1,76.3z"/> 	<radialGradient id="SVGID_8_" cx="430.2901" cy="66.3268" r="76.7847" gradientUnits="userSpaceOnUse"> 		<stop  offset="9.754829e-02" style="stop-color:#FDEEDC"/> 		<stop  offset="0.5931" style="stop-color:#EA8F38"/> 		<stop  offset="0.8073" style="stop-color:#DD5C10"/> 	</radialGradient> 	<path class="st9" d="M465.2,98.6c-0.4-0.8-0.9-1.4-1.6-1.9c-1.7-1.3-3.3-2.5-5-3.8c-3.8-2.8-7.5-5.7-11.2-8.6 c-0.9-0.7-1.7-1.4-2.6-2.1c-0.1-0.1-0.3-0.2-0.5-0.3c0,0-0.1,0-0.2,0.1c0,0-0.1,0.1-0.1,0.2c0,0.4,0.2,0.6,0.4,0.9 c1.1,1.3,2.1,2.5,3.2,3.8c5,6.1,10,12.2,15,18.3c4.6,5.6,9.1,11.2,13.7,16.8c0.1,0.1,0.3,0.2,0.8,0.6c-0.4-1.1-0.5-1.7-0.8-2.3 C472.6,113,468.9,105.8,465.2,98.6z"/> 	 	<radialGradient id="SVGID_9_" cx="437.8073" cy="59.3792" r="61.5141" fx="441.0828" fy="67.2321" gradientTransform="matrix(0.5952 0.8036 -0.8063 0.5973 225.0952 -327.8922)" gradientUnits="userSpaceOnUse"> 		<stop  offset="2.792978e-02" style="stop-color:#FDEEDC"/> 		<stop  offset="0.5463" style="stop-color:#EA8F38"/> 		<stop  offset="0.7962" style="stop-color:#DD5C10"/> 	</radialGradient> 	<path class="st10" d="M468.4,11.3c0.1-0.2,0.1-0.4,0.4-1c-0.9,0.6-1.5,1-1.9,1.4c-5.8,5.6-11.6,11.2-17.4,16.8 c-0.6,0.6-1.1,1.3-1.4,2.1c-0.7,2-1.5,4-2.2,5.9c-1.6,4.5-3.3,8.9-5,13.3c-0.4,1-0.8,2.1-1.2,3.1c-0.1,0.2-0.1,0.4-0.1,0.6 c0,0,0.1,0.1,0.1,0.2c0,0,0.1,0,0.2,0c0.3-0.1,0.5-0.4,0.7-0.6c0.9-1.4,1.8-2.8,2.7-4.1c4.4-6.6,8.8-13.1,13.2-19.7 C460.3,23.3,464.4,17.3,468.4,11.3z"/> 	 	<radialGradient id="SVGID_10_" cx="434.8724" cy="59.7705" r="61.5141" fx="438.1479" fy="67.6234" gradientTransform="matrix(0.8189 0.5739 -0.5759 0.8218 113.1592 -238.9131)" gradientUnits="userSpaceOnUse"> 		<stop  offset="3.946231e-02" style="stop-color:#FDEEDC"/> 		<stop  offset="0.568" style="stop-color:#EA8F38"/> 		<stop  offset="0.8186" style="stop-color:#DD5C10"/> 	</radialGradient> 	<path class="st11" d="M445.2,1.7c0-0.2,0-0.4,0-1.1c-0.6,0.9-1,1.4-1.3,2c-3.4,7.4-6.8,14.7-10.3,22.1c-0.4,0.8-0.6,1.6-0.6,2.5 c0,2.1,0,4.2,0.1,6.3c0.1,4.8,0,9.5,0,14.3c0,1.1,0,2.3-0.1,3.4c0,0.2,0,0.4,0.1,0.6c0,0,0.1,0.1,0.2,0.1c0.1,0,0.1,0,0.2-0.1 c0.3-0.2,0.4-0.5,0.4-0.9c0.3-1.6,0.7-3.2,1.1-4.8c1.8-7.7,3.6-15.5,5.3-23.2C441.9,15.8,443.6,8.8,445.2,1.7z"/> </g> </svg>