<?xml version="1.0" encoding="utf-8"?>
<svg version="1.1" id="Layer_1" xmlns="http://www.w3.org/2000/svg" xmlns:xlink="http://www.w3.org/1999/xlink" x="0px" y="0px"
	 width="273px" height="230px" viewBox="0 0 273 230" style="enable-background:new 0 0 273 230;" xml:space="preserve">
<style type="text/css">
	a {display:block;cursor:pointer;}
	a:hover .lines {opacity:0;transition:opacity 0.2s ease;-webkit-transition:opacity 0.2s ease;-moz-transition: opacity 0.2s ease;}
	.st0{fill:#CCE6F3;stroke:#FFFFFF;stroke-width:1.5;stroke-miterlimit:10;}
	.st1{opacity:0.4;}
	.st2{fill:none;stroke:#FFFFFF;stroke-width:0.6;stroke-miterlimit:10;}
	.st3{fill:#231F20;}
	.st4{font-family:'open-sans','OpenSans-SemiBold', 'myriad-pro', sans-serif; font-weight:600; }
	.st5{font-size:8.4259px;}
	.st6{font-family:'open-sans', 'OpenSans-Bold','myriad-pro', sans-serif; font-weight:700; }
	.st7{font-size:6.4259px;}
	.st8{fill:none;stroke:#231F20;stroke-linecap:round;stroke-miterlimit:10;}
	.st9{fill:none;stroke:#231F20;stroke-linecap:round;stroke-miterlimit:10;stroke-dasharray:0,1.9844;}
	.st10{fill:none;stroke:#231F20;stroke-linecap:round;stroke-miterlimit:10;stroke-dasharray:0,2.1667;}
	.st11{opacity:0.1;fill:#CCE6F3;stroke:#FFFFFF;stroke-width:1.5;stroke-miterlimit:10;enable-background:new    ;}
	.st12{fill:#C1ADCE;stroke:#FFFFFF;stroke-width:1.4;stroke-miterlimit:10;}
	.st13{fill:none;}
	.st14{font-size:5.8981px;}
	.st15{font-family:'open-sans', 'OpenSans-Regular', 'myriad-pro', sans-serif; font-weight:400; }
	.st16{fill:#C1ADCE;fill-opacity:0;}
	.st17{fill:#EFA264;stroke:#FFFFFF;stroke-width:1.4;stroke-miterlimit:10;}
	.st18{fill:#EFA264;fill-opacity:0;}
	.st19{fill:#F8D968;stroke:#FFFFFF;stroke-width:1.4;stroke-miterlimit:10;}
	.st20{fill:#F8D968;fill-opacity:0;}
	.st21{fill:#CD786A;stroke:#FFFFFF;stroke-width:1.4;stroke-miterlimit:10;}
	.st22{font-size:6.3194px;}
	.st23{fill:#231F20;stroke:#231F20;stroke-width:0.5;stroke-miterlimit:10;}
	.st24{fill:none;stroke:#231F20;stroke-linecap:round;stroke-miterlimit:10;stroke-dasharray:0,2.0141;}
	.st25{fill:none;stroke:#231F20;stroke-linecap:round;stroke-miterlimit:10;stroke-dasharray:0,2.0265;}
	.st26{fill:#CD786A;fill-opacity:0;}
	.st27{fill:#67A3CA;stroke:#FFFFFF;stroke-width:1.4;stroke-miterlimit:10;}
	.st28{fill:none;stroke:#231F20;stroke-linecap:round;stroke-miterlimit:10;stroke-dasharray:0,1.9875;}
	.st29{fill:#67A3CA;fill-opacity:0;}
	.st30{fill:#C8DC98;stroke:#FFFFFF;stroke-width:1.4;stroke-miterlimit:10;}
	.st31{fill:#C8DC98;fill-opacity:0;}
	.st32{fill:none;stroke:#231F20;stroke-linecap:round;stroke-miterlimit:10;stroke-dasharray:0,1.9782;}
	.st33{fill:none;stroke:#231F20;stroke-linecap:round;stroke-miterlimit:10;stroke-dasharray:0,2.1511;}
	.st34{fill:none;stroke:#231F20;stroke-linecap:round;stroke-miterlimit:10;stroke-dasharray:0,2.0546;}
	.st35{font-family:'open-sans', 'OpenSans-LightItalic', 'myriad-pro', sans-serif; font-weight:200; font-style:italic; }
	.st36{font-size:6.7407px;}
	.st37{font-family:'open-sans', 'OpenSans-Light','myriad-pro', sans-serif; font-weight:200; }
	.st38{font-size:5.0556px;}
</style>
<g>
	<g id="cumulative">
		<polygon id="color_4_" class="st0" points="0.8,214.8 48.6,214.8 48.6,77.2 169.4,77.2 169.4,22.7 0.8,22.7 		"/>
		<g class="st1 lines">
			<line class="st2" x1="169.4" y1="35.5" x2="0.8" y2="35.5"/>
			<line class="st2" x1="169.4" y1="48.3" x2="0.8" y2="48.3"/>
			<line class="st2" x1="169.4" y1="61.1" x2="0.8" y2="61.1"/>
			<line class="st2" x1="169.4" y1="73.9" x2="0.8" y2="73.9"/>
			<line class="st2" x1="48.6" y1="86.8" x2="0.8" y2="86.8"/>
			<line class="st2" x1="48.6" y1="99.6" x2="0.8" y2="99.6"/>
			<line class="st2" x1="48.6" y1="112.4" x2="0.8" y2="112.4"/>
			<line class="st2" x1="48.6" y1="125.2" x2="0.8" y2="125.2"/>
			<line class="st2" x1="48.6" y1="138.1" x2="0.8" y2="138.1"/>
			<line class="st2" x1="48.6" y1="150.8" x2="0.8" y2="150.8"/>
			<line class="st2" x1="48.6" y1="163.6" x2="0.8" y2="163.6"/>
			<line class="st2" x1="48.6" y1="176.4" x2="0.8" y2="176.4"/>
			<line class="st2" x1="48.6" y1="189.2" x2="0.8" y2="189.2"/>
			<line class="st2" x1="48.6" y1="202.1" x2="0.8" y2="202.1"/>
			<line class="st2" x1="48.6" y1="208.4" x2="0.8" y2="208.4"/>
			<line class="st2" x1="169.4" y1="29.1" x2="0.8" y2="29.1"/>
			<line class="st2" x1="169.4" y1="41.9" x2="0.8" y2="41.9"/>
			<line class="st2" x1="169.4" y1="54.7" x2="0.8" y2="54.7"/>
			<line class="st2" x1="169.4" y1="67.5" x2="0.8" y2="67.5"/>
			<line class="st2" x1="48.6" y1="80.3" x2="0.8" y2="80.3"/>
			<line class="st2" x1="48.6" y1="93.1" x2="0.8" y2="93.1"/>
			<line class="st2" x1="48.6" y1="106" x2="0.8" y2="106"/>
			<line class="st2" x1="48.6" y1="118.8" x2="0.8" y2="118.8"/>
			<line class="st2" x1="48.6" y1="131.6" x2="0.8" y2="131.6"/>
			<line class="st2" x1="48.6" y1="144.4" x2="0.8" y2="144.4"/>
			<line class="st2" x1="48.6" y1="157.2" x2="0.8" y2="157.2"/>
			<line class="st2" x1="48.6" y1="170.1" x2="0.8" y2="170.1"/>
			<line class="st2" x1="48.6" y1="182.8" x2="0.8" y2="182.8"/>
			<line class="st2" x1="48.6" y1="195.6" x2="0.8" y2="195.6"/>
			<line class="st2" x1="12" y1="22.7" x2="12" y2="214.8"/>
			<line class="st2" x1="23.3" y1="22.7" x2="23.3" y2="214.8"/>
			<line class="st2" x1="34.5" y1="22.7" x2="34.5" y2="214.8"/>
			<line class="st2" x1="45.8" y1="22.7" x2="45.8" y2="214.8"/>
			<line class="st2" x1="57" y1="22.7" x2="57" y2="77.2"/>
			<line class="st2" x1="68.2" y1="22.7" x2="68.2" y2="77.2"/>
			<line class="st2" x1="79.5" y1="22.7" x2="79.5" y2="77.2"/>
			<line class="st2" x1="90.7" y1="22.7" x2="90.7" y2="77.2"/>
			<line class="st2" x1="102" y1="22.7" x2="102" y2="77.2"/>
			<line class="st2" x1="113.2" y1="22.7" x2="113.2" y2="77.2"/>
			<line class="st2" x1="124.4" y1="22.7" x2="124.4" y2="77.2"/>
			<line class="st2" x1="135.7" y1="22.7" x2="135.7" y2="77.2"/>
			<line class="st2" x1="146.9" y1="22.7" x2="146.9" y2="77.2"/>
			<line class="st2" x1="158.1" y1="22.7" x2="158.1" y2="77.2"/>
			<line class="st2" x1="6.5" y1="22.7" x2="6.5" y2="214.8"/>
			<line class="st2" x1="17.7" y1="22.7" x2="17.7" y2="214.8"/>
			<line class="st2" x1="28.9" y1="22.7" x2="28.9" y2="214.8"/>
			<line class="st2" x1="40.2" y1="22.7" x2="40.2" y2="214.8"/>
			<line class="st2" x1="51.4" y1="22.7" x2="51.4" y2="77.2"/>
			<line class="st2" x1="62.6" y1="22.7" x2="62.6" y2="77.2"/>
			<line class="st2" x1="73.9" y1="22.7" x2="73.9" y2="77.2"/>
			<line class="st2" x1="85.1" y1="22.7" x2="85.1" y2="77.2"/>
			<line class="st2" x1="96.3" y1="22.7" x2="96.3" y2="77.2"/>
			<line class="st2" x1="107.6" y1="22.7" x2="107.6" y2="77.2"/>
			<line class="st2" x1="118.8" y1="22.7" x2="118.8" y2="77.2"/>
			<line class="st2" x1="130" y1="22.7" x2="130" y2="77.2"/>
			<line class="st2" x1="141.2" y1="22.7" x2="141.2" y2="77.2"/>
			<line class="st2" x1="152.5" y1="22.7" x2="152.5" y2="77.2"/>
			<line class="st2" x1="163.7" y1="22.7" x2="163.7" y2="77.2"/>
		</g>
		<g>
			<text transform="matrix(1 0 0 1 0.8423 7.1707)" class="st3 st4 st5">Business As Usual Cumulative Emissions, 2020-2050:</text>
			<text transform="matrix(1 0 0 1 0.8423 15.5965)" class="st3 st6 st5">2,253 Gigatons CO</text>
			<text transform="matrix(1 0 0 1 76.1025 17.2815)" class="st3 st6 st7">2</text>
			<text transform="matrix(1 0 0 1 79.9058 15.5965)" class="st3 st6 st5">e</text>
			<g>
				<line class="st8" x1="92" y1="26" x2="92" y2="26"/>
				<line class="st9" x1="92" y1="24.4" x2="92" y2="13.4"/>
				<line class="st8" x1="92" y1="12.7" x2="92" y2="12.7"/>
				<line class="st10" x1="90.2" y1="12.7" x2="89.2" y2="12.7"/>
				<line class="st8" x1="88.3" y1="12.7" x2="88.3" y2="12.7"/>
			</g>
		</g>
		<polygon id="link_4_" class="st11" points="0.8,214.8 48.6,214.8 48.6,77.2 169.4,77.2 169.4,22.7 0.8,22.7 		"/>
	</g>
	<a target="_top" xlink:href="/policies/carbon-pricing">
		<g id="carbon-pricing_1_">
			<rect id="color_5_" x="105.9" y="77.2" class="st12 color" width="63.4" height="67.6"/>
			<g class="st1 lines">
				<line class="st2" x1="169.4" y1="86.8" x2="105.9" y2="86.8"/>
				<line class="st2" x1="169.4" y1="99.6" x2="105.9" y2="99.6"/>
				<line class="st2" x1="169.4" y1="112.4" x2="105.9" y2="112.4"/>
				<line class="st2" x1="169.4" y1="125.2" x2="105.9" y2="125.2"/>
				<line class="st2" x1="169.4" y1="138.1" x2="105.9" y2="138.1"/>
				<line class="st2" x1="169.4" y1="80.3" x2="105.9" y2="80.3"/>
				<line class="st2" x1="169.4" y1="93.1" x2="105.9" y2="93.1"/>
				<line class="st2" x1="169.4" y1="106" x2="105.9" y2="106"/>
				<line class="st2" x1="169.4" y1="118.8" x2="105.9" y2="118.8"/>
				<line class="st2" x1="169.4" y1="131.6" x2="105.9" y2="131.6"/>
				<line class="st2" x1="113.2" y1="77.2" x2="113.2" y2="144.8"/>
				<line class="st2" x1="124.4" y1="77.2" x2="124.4" y2="144.8"/>
				<line class="st2" x1="135.7" y1="77.2" x2="135.7" y2="144.8"/>
				<line class="st2" x1="146.9" y1="77.2" x2="146.9" y2="144.8"/>
				<line class="st2" x1="158.1" y1="77.2" x2="158.1" y2="144.8"/>
				<line class="st2" x1="107.6" y1="77.2" x2="107.6" y2="144.8"/>
				<line class="st2" x1="118.8" y1="77.2" x2="118.8" y2="144.8"/>
				<line class="st2" x1="130" y1="77.2" x2="130" y2="144.8"/>
				<line class="st2" x1="141.2" y1="77.2" x2="141.2" y2="144.8"/>
				<line class="st2" x1="152.5" y1="77.2" x2="152.5" y2="144.8"/>
				<line class="st2" x1="163.7" y1="77.2" x2="163.7" y2="144.8"/>
				<rect y="0" class="st13" width="273" height="230"/>
			</g>
			<text transform="matrix(1 0 0 1 108.416 86.5257)" class="st3 st4 st14">Carbon </text>
			<text transform="matrix(1 0 0 1 108.416 92.4236)" class="st3 st4 st14">Pricing </text>
			<text transform="matrix(1 0 0 1 108.416 98.3221)" class="st3 st15 st14">25.8%</text>
			<rect id="link_5_" x="105.9" y="77.2" class="st16" width="63.4" height="67.6"/>
		</g>
	</a>
	<a target="_top" xlink:href="/policies/industrial-energy-efficiency" >
		<g id="industry-efficiency-standards_2_">
			<rect id="color_6_" x="48.6" y="77.2" class="st17 color" width="57.2" height="46.3"/>
			<g class="st1 lines">
				<line class="st2" x1="105.9" y1="86.8" x2="48.6" y2="86.8"/>
				<line class="st2" x1="105.9" y1="99.6" x2="48.6" y2="99.6"/>
				<line class="st2" x1="105.9" y1="112.4" x2="48.6" y2="112.4"/>
				<line class="st2" x1="105.9" y1="80.3" x2="48.6" y2="80.3"/>
				<line class="st2" x1="105.9" y1="93.1" x2="48.6" y2="93.1"/>
				<line class="st2" x1="105.9" y1="106" x2="48.6" y2="106"/>
				<line class="st2" x1="105.9" y1="118.8" x2="48.6" y2="118.8"/>
				<line class="st2" x1="57" y1="77.2" x2="57" y2="123.6"/>
				<line class="st2" x1="68.2" y1="77.2" x2="68.2" y2="123.6"/>
				<line class="st2" x1="79.5" y1="77.2" x2="79.5" y2="123.6"/>
				<line class="st2" x1="90.7" y1="77.2" x2="90.7" y2="123.6"/>
				<line class="st2" x1="102" y1="77.2" x2="102" y2="123.6"/>
				<line class="st2" x1="51.4" y1="77.2" x2="51.4" y2="123.6"/>
				<line class="st2" x1="62.6" y1="77.2" x2="62.6" y2="123.6"/>
				<line class="st2" x1="73.9" y1="77.2" x2="73.9" y2="123.6"/>
				<line class="st2" x1="85.1" y1="77.2" x2="85.1" y2="123.6"/>
				<line class="st2" x1="96.3" y1="77.2" x2="96.3" y2="123.6"/>
			</g>
			<text transform="matrix(1 0 0 1 50.7578 86.5257)" class="st3 st4 st14">Industry </text>
			<text transform="matrix(1 0 0 1 50.7578 92.4236)" class="st3 st4 st14">Efficiency </text>
			<text transform="matrix(1 0 0 1 50.7578 98.3221)" class="st3 st4 st14">Standards </text>
			<text transform="matrix(1 0 0 1 50.7578 104.22)" class="st3 st15 st14">16.3%</text>
			<rect id="link_6_" x="48.6" y="77.2" class="st18" width="57.2" height="46.3"/>
		</g>
	</a>
	<a target="_top" xlink:href="/policies/feed-in-tariffs" >
		<g id="renewable-portfolio-standards_2_">
			<rect id="color_7_" x="48.6" y="186.8" class="st19 color" width="57.2" height="28"/>
			<g class="st1 lines">
				<line class="st2" x1="105.9" y1="189.2" x2="48.6" y2="189.2"/>
				<line class="st2" x1="105.9" y1="202.1" x2="48.6" y2="202.1"/>
				<line class="st2" x1="105.9" y1="208.4" x2="48.6" y2="208.4"/>
				<line class="st2" x1="105.9" y1="195.6" x2="48.6" y2="195.6"/>
				<line class="st2" x1="57" y1="186.8" x2="57" y2="214.8"/>
				<line class="st2" x1="68.2" y1="186.8" x2="68.2" y2="214.8"/>
				<line class="st2" x1="79.5" y1="186.8" x2="79.5" y2="214.8"/>
				<line class="st2" x1="90.7" y1="186.8" x2="90.7" y2="214.8"/>
				<line class="st2" x1="102" y1="186.8" x2="102" y2="214.8"/>
				<line class="st2" x1="51.4" y1="186.8" x2="51.4" y2="214.8"/>
				<line class="st2" x1="62.6" y1="186.8" x2="62.6" y2="214.8"/>
				<line class="st2" x1="73.9" y1="186.8" x2="73.9" y2="214.8"/>
				<line class="st2" x1="85.1" y1="186.8" x2="85.1" y2="214.8"/>
				<line class="st2" x1="96.3" y1="186.8" x2="96.3" y2="214.8"/>
			</g>
			<text transform="matrix(1 0 0 1 50.7578 199.5037)" class="st3 st4 st14">Renewable </text>
			<text transform="matrix(1 0 0 1 50.7578 205.4021)" class="st3 st4 st14">Portfolio </text>
			<text transform="matrix(1 0 0 1 50.7578 211.3001)" class="st3 st4 st14">Standards  </text>
			<text transform="matrix(1 0 0 1 82.4058 211.3001)" class="st3 st15 st14">9.6%</text>
			<rect id="link_7_" x="48.6" y="186.8" class="st20" width="57.2" height="28"/>
		</g>
	</a>
	<a target="_top" xlink:href="/policies/complementary-electricity-policies" >
		<g id="complementary-power-sector-policies_2_">
			<rect id="color_8_" x="48.6" y="154.6" class="st19 color" width="57.2" height="32.4"/>
			<g class="st1 lines">
				<line class="st2" x1="105.9" y1="163.6" x2="48.6" y2="163.6"/>
				<line class="st2" x1="105.9" y1="176.4" x2="48.6" y2="176.4"/>
				<line class="st2" x1="105.9" y1="157.2" x2="48.6" y2="157.2"/>
				<line class="st2" x1="105.9" y1="170.1" x2="48.6" y2="170.1"/>
				<line class="st2" x1="105.9" y1="182.8" x2="48.6" y2="182.8"/>
				<line class="st2" x1="57" y1="154.6" x2="57" y2="186.8"/>
				<line class="st2" x1="68.2" y1="154.6" x2="68.2" y2="186.8"/>
				<line class="st2" x1="79.5" y1="154.6" x2="79.5" y2="186.8"/>
				<line class="st2" x1="90.7" y1="154.6" x2="90.7" y2="186.8"/>
				<line class="st2" x1="102" y1="154.6" x2="102" y2="186.8"/>
				<line class="st2" x1="51.4" y1="154.6" x2="51.4" y2="186.8"/>
				<line class="st2" x1="62.6" y1="154.6" x2="62.6" y2="186.8"/>
				<line class="st2" x1="73.9" y1="154.6" x2="73.9" y2="186.8"/>
				<line class="st2" x1="85.1" y1="154.6" x2="85.1" y2="186.8"/>
				<line class="st2" x1="96.3" y1="154.6" x2="96.3" y2="186.8"/>
			</g>
			<text transform="matrix(1 0 0 1 50.7578 163.7825)" class="st3 st4 st14">Complementary </text>
			<text transform="matrix(1 0 0 1 50.7578 169.6805)" class="st3 st4 st14">Power Sector </text>
			<text transform="matrix(1 0 0 1 50.7578 175.5789)" class="st3 st4 st14">Policies  </text>
			<text transform="matrix(1 0 0 1 74.8813 175.5789)" class="st3 st15 st14">11.2%</text>
			<rect id="link_8_" x="48.6" y="154.6" class="st20" width="57.2" height="32.4"/>
		</g>
	</a>
	<a target="_top" xlink:href="/policies/industrial-process-emissions-policies" >
		<g id="industrial-process-emissions-policies_2_">
			<rect id="color_9_" x="48.6" y="123.6" class="st17 color" width="57.2" height="30.9"/>
			<g class="st1 lines">
				<line class="st2" x1="105.9" y1="125.2" x2="48.6" y2="125.2"/>
				<line class="st2" x1="105.9" y1="138.1" x2="48.6" y2="138.1"/>
				<line class="st2" x1="105.9" y1="150.8" x2="48.6" y2="150.8"/>
				<line class="st2" x1="105.9" y1="131.6" x2="48.6" y2="131.6"/>
				<line class="st2" x1="105.9" y1="144.4" x2="48.6" y2="144.4"/>
				<line class="st2" x1="57" y1="123.6" x2="57" y2="154.6"/>
				<line class="st2" x1="68.2" y1="123.6" x2="68.2" y2="154.6"/>
				<line class="st2" x1="79.5" y1="123.6" x2="79.5" y2="154.6"/>
				<line class="st2" x1="90.7" y1="123.6" x2="90.7" y2="154.6"/>
				<line class="st2" x1="102" y1="123.6" x2="102" y2="154.6"/>
				<line class="st2" x1="51.4" y1="123.6" x2="51.4" y2="154.6"/>
				<line class="st2" x1="62.6" y1="123.6" x2="62.6" y2="154.6"/>
				<line class="st2" x1="73.9" y1="123.6" x2="73.9" y2="154.6"/>
				<line class="st2" x1="85.1" y1="123.6" x2="85.1" y2="154.6"/>
				<line class="st2" x1="96.3" y1="123.6" x2="96.3" y2="154.6"/>
			</g>
			<text transform="matrix(1 0 0 1 50.7578 132.8797)" class="st3 st4 st14">Industrial Process</text>
			<text transform="matrix(1 0 0 1 50.7578 138.7781)" class="st3 st4 st14">Emissions </text>
			<text transform="matrix(1 0 0 1 50.7578 144.6761)" class="st3 st4 st14">Policies  </text>
			<text transform="matrix(1 0 0 1 74.8813 144.6761)" class="st3 st15 st14">10.3%</text>
			<rect id="link_9_" x="48.6" y="123.6" class="st18" width="57.2" height="30.9"/>
		</g>
	</a>
	<a target="_top" xlink:href="/policies/building-codes-appliance-standards" >
		<g id="building-codes-appliance-standards_2_">
			<rect id="color_10_" x="105.9" y="144.8" class="st21 color" width="27.4" height="31.7"/>
			<g class="st1 lines">
				<line class="st2" x1="133.3" y1="150.8" x2="105.9" y2="150.8"/>
				<line class="st2" x1="133.3" y1="163.6" x2="105.9" y2="163.6"/>
				<line class="st2" x1="133.3" y1="157.2" x2="105.9" y2="157.2"/>
				<line class="st2" x1="133.3" y1="170.1" x2="105.9" y2="170.1"/>
				<line class="st2" x1="113.2" y1="144.8" x2="113.2" y2="176.4"/>
				<line class="st2" x1="124.4" y1="144.8" x2="124.4" y2="176.4"/>
				<line class="st2" x1="107.6" y1="144.8" x2="107.6" y2="176.4"/>
				<line class="st2" x1="118.8" y1="144.8" x2="118.8" y2="176.4"/>
				<line class="st2" x1="130" y1="144.8" x2="130" y2="176.4"/>
			</g>
			<g>
				<text transform="matrix(1 0 0 1 177.0063 129.0882)" class="st3 st4 st22">Building Codes and </text>
				<text transform="matrix(1 0 0 1 177.0063 136.6717)" class="st3 st4 st22">Appliance Standards  </text>
				<text transform="matrix(1 0 0 1 242.2651 136.6717)" class="st3 st15 st22">5.2%</text>
				<g>
					<circle class="st23" cx="121.8" cy="148.2" r="0.8"/>
					<line class="st8" x1="174.3" y1="134.6" x2="174.3" y2="134.6"/>
					<line class="st24" x1="172.6" y1="134.6" x2="122.6" y2="134.6"/>
					<line class="st8" x1="121.8" y1="134.6" x2="121.8" y2="134.6"/>
					<line class="st25" x1="121.8" y1="136.2" x2="121.8" y2="147.3"/>
					<line class="st8" x1="121.8" y1="148.2" x2="121.8" y2="148.2"/>
				</g>
			</g>
			<rect id="link_10_" x="105.9" y="144.8" class="st26" width="27.4" height="31.7"/>
		</g>
	</a>
	<a target="_top" xlink:href="/policies/urban-mobility-policies" >
		<g id="urban-mobility">
			<rect id="color_3_" x="153.6" y="144.8" class="st27 color" width="15.8" height="22.1"/>
			<g class="st1 lines">
				<line class="st2" x1="169.4" y1="150.8" x2="153.5" y2="150.8"/>
				<line class="st2" x1="169.4" y1="163.6" x2="153.5" y2="163.6"/>
				<line class="st2" x1="169.4" y1="157.2" x2="153.5" y2="157.2"/>
				<line class="st2" x1="158.1" y1="144.6" x2="158.1" y2="166.9"/>
				<line class="st2" x1="163.7" y1="144.6" x2="163.7" y2="166.9"/>
			</g>
			<g>
				<text transform="matrix(1 0 0 1 177.0063 162.4881)" class="st3 st4 st22">Urban Mobility  </text>
				<text transform="matrix(1 0 0 1 225.2451 162.4881)" class="st3 st15 st22">2.1%</text>
				<g>
					<g>
						<line class="st8" x1="174.3" y1="160.1" x2="174.3" y2="160.1"/>
						<line class="st28" x1="172.6" y1="160.1" x2="166.8" y2="160.1"/>
						<line class="st8" x1="166" y1="160.1" x2="166" y2="160.1"/>
					</g>
					<circle class="st23" cx="166" cy="160.1" r="0.8"/>
				</g>
			</g>
			<rect id="link_3_" x="153.6" y="144.8" class="st29" width="15.8" height="22.1"/>
		</g>
	</a>
	<a target="_top" xlink:href="/policies/vehicle-and-fuel-fees-and-feebates" >
		<g id="feebate_2_">
			<rect id="color_2_" x="157.1" y="166.9" class="st27 color" width="12.3" height="9.6"/>
			<g class="st1 lines">
				<line class="st2" x1="158.1" y1="166.9" x2="158.1" y2="176.4"/>
				<line class="st2" x1="163.7" y1="166.9" x2="163.7" y2="176.4"/>
				<line class="st2" x1="169.4" y1="170.1" x2="157.1" y2="170.1"/>
			</g>
			<g>
				<text transform="matrix(1 0 0 1 177.0063 173.7176)" class="st3 st4 st22">Feebate  </text>
				<text transform="matrix(1 0 0 1 204.3823 173.7176)" class="st3 st15 st22">0.7%</text>
				<g>
					<circle class="st23" cx="166" cy="171.6" r="0.8"/>
					<g>
						<g>
							<line class="st8" x1="174.3" y1="171.6" x2="174.3" y2="171.6"/>
							<line class="st28" x1="172.6" y1="171.6" x2="166.8" y2="171.6"/>
							<line class="st8" x1="166" y1="171.6" x2="166" y2="171.6"/>
						</g>
					</g>
				</g>
			</g>
			<rect id="link_2_" x="157.1" y="166.9" class="st29" width="12.3" height="9.6"/>
		</g>
	</a>
	<g id="land-use_2_">
		<rect id="color" x="105.9" y="176.6" class="st30 color" width="63.4" height="38.3"/>
		<g class="st1 lines">
			<line class="st2" x1="169.4" y1="182.8" x2="105.9" y2="182.8"/>
			<line class="st2" x1="169.4" y1="189.2" x2="105.9" y2="189.2"/>
			<line class="st2" x1="169.4" y1="202.1" x2="105.9" y2="202.1"/>
			<line class="st2" x1="169.4" y1="208.4" x2="105.9" y2="208.4"/>
			<line class="st2" x1="169.4" y1="195.6" x2="105.9" y2="195.6"/>
			<line class="st2" x1="113.2" y1="176.4" x2="113.2" y2="214.9"/>
			<line class="st2" x1="124.4" y1="176.4" x2="124.4" y2="214.9"/>
			<line class="st2" x1="135.7" y1="176.4" x2="135.7" y2="214.9"/>
			<line class="st2" x1="146.9" y1="176.4" x2="146.9" y2="214.9"/>
			<line class="st2" x1="158.1" y1="176.4" x2="158.1" y2="214.9"/>
			<line class="st2" x1="107.6" y1="176.4" x2="107.6" y2="214.9"/>
			<line class="st2" x1="118.8" y1="176.4" x2="118.8" y2="214.9"/>
			<line class="st2" x1="130" y1="176.4" x2="130" y2="214.9"/>
			<line class="st2" x1="141.2" y1="176.4" x2="141.2" y2="214.9"/>
			<line class="st2" x1="152.5" y1="176.4" x2="152.5" y2="214.9"/>
			<line class="st2" x1="163.7" y1="176.4" x2="163.7" y2="214.9"/>
		</g>
		<text transform="matrix(1 0 0 1 108.416 211.3001)" class="st3 st4 st14">Land Use*  </text>
		<text transform="matrix(1 0 0 1 140.603 211.3001)" class="st3 st15 st14">14.7%</text>
		<rect id="link" x="105.9" y="176.6" class="st31" width="63.4" height="38.3"/>
	</g>
	<a target="_top" xlink:href="/policies/electric-vehicle-policies" >
		<g id="vehicle-electrification_2_">
			<rect id="color_1_" x="133.3" y="166.9" class="st27 color" width="23.8" height="9.6"/>
			<g class="st1 lines">
				<line class="st2" x1="135.7" y1="166.9" x2="135.7" y2="176.4"/>
				<line class="st2" x1="146.9" y1="166.9" x2="146.9" y2="176.4"/>
				<line class="st2" x1="141.2" y1="166.9" x2="141.2" y2="176.4"/>
				<line class="st2" x1="152.5" y1="166.9" x2="152.5" y2="176.4"/>
				<line class="st2" x1="157.1" y1="170.1" x2="133.3" y2="170.1"/>
			</g>
			<g>
				<g>
					<text transform="matrix(1 0 0 1 177.0063 182.5647)" class="st3 st4 st22">Vehicle Electrification  </text>
					<text transform="matrix(1 0 0 1 245.0459 182.5647)" class="st3 st15 st22">1.4%</text>
				</g>
				<g>
					<circle class="st23" cx="144.3" cy="173.1" r="0.8"/>
					<line class="st8" x1="174.3" y1="180.4" x2="174.3" y2="180.4"/>
					<line class="st32" x1="172.7" y1="180.4" x2="145.2" y2="180.4"/>
					<line class="st8" x1="144.3" y1="180.4" x2="144.3" y2="180.4"/>
					<line class="st33" x1="144.3" y1="178.6" x2="144.3" y2="174.1"/>
					<line class="st8" x1="144.3" y1="173.1" x2="144.3" y2="173.1"/>
				</g>
			</g>
			<rect id="link_1_" x="133.3" y="166.9" class="st29" width="23.8" height="9.6"/>
		</g>
	</a>
	<a target="_top" xlink:href="/policies/vehicle-performance-standards" >
		<g id="fuel-economy-standards_2_">
			<rect x="133.3" y="144.8" class="st27 color" width="20.2" height="22.1"/>
			<g class="st1 lines">
				<line class="st2" x1="153.5" y1="150.8" x2="133.3" y2="150.8"/>
				<line class="st2" x1="153.5" y1="163.6" x2="133.3" y2="163.6"/>
				<line class="st2" x1="153.5" y1="157.2" x2="133.3" y2="157.2"/>
				<line class="st2" x1="135.7" y1="144.8" x2="135.7" y2="166.9"/>
				<line class="st2" x1="146.9" y1="144.8" x2="146.9" y2="166.9"/>
				<line class="st2" x1="141.2" y1="144.8" x2="141.2" y2="166.9"/>
				<line class="st2" x1="152.5" y1="144.8" x2="152.5" y2="166.9"/>
			</g>
			<g>
				<g>
					<circle class="st23" cx="150.1" cy="148.6" r="0.8"/>
					<line class="st8" x1="174.3" y1="148.6" x2="174.3" y2="148.6"/>
					<line class="st34" x1="172.6" y1="148.6" x2="151" y2="148.6"/>
					<line class="st8" x1="150.1" y1="148.6" x2="150.1" y2="148.6"/>
				</g>
				<text transform="matrix(1 0 0 1 177.0063 150.6917)" class="st3 st4 st22">Fuel Economy Standards  </text>
				<text transform="matrix(1 0 0 1 254.3901 150.6917)" class="st3 st15 st22">2.7%</text>
			</g>
			<rect id="link_11_" x="133.3" y="144.8" class="st29" width="20.2" height="22.1"/>
		</g>
	</a>
	<g id="Type">
		<text transform="matrix(1 0 0 1 0.8423 227.0872)" class="st3 st35 st22">*Land-use emissions are calculated separately in this book, as explained in chapter two.</text>
		<rect x="176.9" y="22.7" class="st13" width="91" height="88.3"/>
		<text transform="matrix(1 0 0 1 176.9443 27.8782)" class="st3 st4 st36">Policy-Based Emissions </text>
		<text transform="matrix(1 0 0 1 176.9443 36.304)" class="st3 st4 st36">Reductions: 1,185 Gigatons</text>
		<text transform="matrix(1 0 0 1 176.9443 46.4153)" class="st3 st37 st36">10 policies, plus land-use </text>
		<text transform="matrix(1 0 0 1 176.9443 54.8411)" class="st3 st37 st36">sector reductions, can create </text>
		<text transform="matrix(1 0 0 1 176.9443 63.2674)" class="st3 st37 st36">a 50 percent chance of hitting </text>
		<text transform="matrix(1 0 0 1 176.9443 71.6932)" class="st3 st37 st36">the 2°C target by cutting </text>
		<text transform="matrix(1 0 0 1 176.9443 80.1189)" class="st3 st37 st36">cumulative emissions 1,185 </text>
		<text transform="matrix(1 0 0 1 176.9443 88.5447)" class="st3 st37 st36">gigatons CO</text>
		<text transform="matrix(1 0 0 1 215.5044 89.3875)" class="st3 st37 st38">2</text>
		<text transform="matrix(1 0 0 1 218.3862 88.5447)" class="st3 st37 st36">e from 2020 to </text>
		<text transform="matrix(1 0 0 1 176.9443 96.971)" class="st3 st37 st36">2050.</text>
	</g>
</g>
</svg>
